<svg id="Layer_1" data-name="Layer 1" xmlns="http://www.w3.org/2000/svg" viewBox="0 0 498.46 541.43"><title>couple</title><path d="M168.07,144.76v258.8H606.56V139.41A30.53,30.53,0,0,0,576,108.89H203.95A35.87,35.87,0,0,0,168.07,144.76Z" transform="translate(-132.98 -99.38)" fill="#93bea9"/><rect x="35.09" y="304.17" width="438.49" height="172.69" fill="#f3a294"/><path d="M168.07,576.52v31.66a32.63,32.63,0,0,0,32.63,32.63h373.8a32.05,32.05,0,0,0,32.05-32.05V576.24H168.07v0.28Z" transform="translate(-132.98 -99.38)" fill="#f3e5d5"/><path d="M393.36,161.45s70.37-106.25,183.11-35c0,0,91.19,63,33.16,182.37,0,0-4.62,28.18-81.89,96.16,0,0-58.74,49.74-94.53,89.53,0,0-20.69,24.17-39.85,46.9,0,0-53.78-53.93-59.68-65.34,0,0-37.1-34.62-94.45-87.67,0,0-107.39-77.91-77.39-194,0,0,38.57-126,170.23-82.9C332.07,111.57,366.09,121.8,393.36,161.45Z" transform="translate(-132.98 -99.38)" fill="#f3a294" stroke="#f1d5b6" stroke-miterlimit="10" stroke-width="5"/><text transform="translate(296.01 69.14)" font-size="18" fill="#fff" font-family="Myriad Pro">LADIES AND GEN<tspan x="128.34" y="0">T</tspan><tspan x="137.18" y="0">S:</tspan><tspan x="-9.92" y="20">WH</tspan><tspan x="17.05" y="20">O</tspan><tspan x="29.61" y="20">’</tspan><tspan x="33.19" y="20">S IT REAL</tspan><tspan x="101" y="20" letter-spacing="-1">L</tspan><tspan x="107.98" y="20">Y FOR?</tspan></text><path id="Red_Heart" data-name="Red Heart" d="M326.06,204.81s-8.07-12.36-21.19-4.19c0,0-10.61,7.23-4,21.1,0,0,.51,3.27,9.42,11.2a138.62,138.62,0,0,1,10.89,10.44s2.38,2.82,4.58,5.46c0,0,6.27-6.21,7-7.53,0,0,4.32-4,11-10.09,0,0,12.5-8.95,9.11-22.42,0,0-4.37-14.63-19.66-9.73A14.82,14.82,0,0,0,326.06,204.81Z" transform="translate(-132.98 -99.38)" fill="#a64f4b"/><g id="Couple"><path d="M551.78,587.53s-2.61-11.21-.26-14.08c0,0,6-15.12-1.56-21.64,0,0-11.21-2.34-16.42,1.83,0,0-7.82.52-12.26-1.83,0,0-3.65-1-9.9,6.52,0,0-5.74,3.39-7.56,2.88,0,0-8.09-2.09-9.91,1.3,0,0-8.6-.27-11,1.56,0,0-23.46.26-37.79,4.17,0,0-15.38,3.65-16.68,5.74,0,0,1.3-56-2.86-59.44,0,0,24.76-4.68,31.8-21.64,0,0,3.64-1.3,4.43-8.34,0,0,1.3-6.26,1.3-19.29,0,0,1-3.13,3.12-4.44,0,0,48.22-29.18,48.22-30.76l3.12-2.34a163.7,163.7,0,0,0-.78-19.29l0.26-5.74-1.82-.52a136.39,136.39,0,0,0-10.17-34.67,19.18,19.18,0,0,1,1.56-9.12s1-9.39-8.6-19.29a42,42,0,0,0-9.9-17.47S475.68,311.24,454,299c0,0-7.3-14.08-9.12-15.11,0,0,6.77-5.74,7.82-8.6,0,0,5-5.74,7.82-7.3a22.65,22.65,0,0,0,6.52-17.2s2.81-2.8,3.3-1.33c-0.38-2.46-2.12-12.39-4.86-13.54,0,0,.78-4.43-2.61-6.52a7.09,7.09,0,0,0-6.52-7.82s-1.56-8.6-9.12-4.7c0,0,1-4.43-.53-6.52a6,6,0,0,1-3.38,3.13s-4.44-5.48-5.74-5.48c0,0,1.3,6.78-.26,6.78,0,0-15.38-9.39-24-6.78,0,0-1.3,9.91.26,14.86,0,0-6.52,4.17-7.82,7.82,0,0-4.43,4.17-4.43,5v-0.79s-3.27,1.38.34,4.19c0,0,.39,2.67-0.27,3.34a63.37,63.37,0,0,1-9.75,8.68s-1.21,2.67,3.61,5.21c0,0,.13,2.54-0.54,2.81,0,0-.93,1.74,1.34,2.67a1.83,1.83,0,0,1-1.74,2.54s-0.66,0-.66,5.35c0,0-6.68,4.28-.8,9,0,0,11.88,4.94,13.76,7.75,0,0,1.34,2.13-2.94,4.28,0,0-9.75,8.16-11.49,12.69,0,0-23.39,2-27.53,10.56a28.67,28.67,0,0,0-.93,5.08s-8,4.94-8,7c0,0-2.67,3.34-2.13,9.21,0,0-3.61-.12-3.74,4.41,0,0-8.42,7.48-8.16,9.22,0,0-6.41,3.2-8.82,7.89,0,0-4.67-6.14-10.42-28.87,0,0-.54-14.43-1.88-18.84,0,0,.67-14.57,0-16.31,0,0-8.14-5.74-6.54-14.56,0,0-.94-3.62-4-0.4a8,8,0,0,0-1.61,2.94s-19-6-29.14-5.21c0,0-5.88.12-15.1,5.88a15,15,0,0,0-2.21-9s7-10.13,4.71-17.45c0,0-7.21-16.4-16.61-28.32,0,0,.53-14.83-3.65-17.76a27.15,27.15,0,0,0-7.53-4.28s-6.58-4.08-6.58-5.12a2.43,2.43,0,0,1,.31-2.61s6.8-11.29,8.26-11.39c0,0,1.15-.21,2.72,1.26a9.59,9.59,0,0,0,6.16,2.29s3.66,1.26,5.85-1.77c0,0,.84-2.61.1-4.39,0,0,1.67-1.77,2.3-1.77,0,0,.28-2.16-0.43-2.21,0,0,.55-1.37,1.1-1.37,0,0,2.3.11,2.42-.55a1.64,1.64,0,0,0-.17-1.48s1.21-1.71,2.54-.78c0,0,3.3,1,4.5-.76s-1.6-9.41-.82-13.21c0,0,2.53-1.82,4.46-7,0,0,2.58-4.46,2.42-6.76,0,0-.35-4.44.35-5.3,0,0,6.93-2.38,2-8.22,0,0-5.84-20.33-37.86-20.76,0,0-26.83.64-37.2,38.28,0,0-3.9,17.09-8.87,21,0,0-8.86,14.49-4.54,35.47,0,0-2,23.58-8.87,32,0,0-5,19.89,12.33,23.14h1.73a98.67,98.67,0,0,0,6.92,19s0.83,27.79,4.36,37.26l3.16,4.45L203,364.05s-6.27,33.46-5,54.05c0,0-1.82,27.36-3.38,31.8a25.89,25.89,0,0,0,11.21,3.65S205.64,464,207.21,465c0,0,6.77,1.82,9.38,1.56a32.9,32.9,0,0,1,2.35,2.61s-0.79,12.77.26,14.59c0,0-13.29,42.75-2.35,70.38,0,0,5.74,41.18.52,58.91,0,0-1,5.47,21.64,2.09,0,0,12.51-.92,16.42,1.1l8.35,6.19s13.78,2,22.69-.25a4.21,4.21,0,0,0,.86-7.87,109.83,109.83,0,0,0-15-5.68l-1.3-1.3s1-16.42.79-22.16c0,0,7.3-30.23,13.55-35.18,0,0,17.47-26.85,23.72-45.88,0,0,4.7-10.94,8.6-15.12,0,0,13.29-18,13.29-20.06,0,0,2.86-8.86,0-12.26l-17.73-34.14s-7.29-15.91-11.47-20.07c0,0-19-24.76-28.93-73,0,0,31,26.59,35.44,30.76,0,0,2.09,14.08,4.7,19,0,0,.79,8.86,2.86,12.51,0,0,3.39,5.21,2.86,7.29a11.58,11.58,0,0,0,8.86-.26s6.3,1,8.89-1.82c0,0,7-4.7,8.32-4.7,0,0,3.79-2.61,4.37-4.17l2.92-2.61s2.35,2.61,9.39-5c0,0-6,77.41-3.91,80.27,0,0-16.68,3.65-18.77,11,0,0-2.86,1.3-3.65,10.42,0,0-3.91,16.42-1,22.15,0,0,2.09,9.39,4.18,11.47,0,0,2.86,11,2.08,13.3,0,0-.26,24.76,2.35,33.09,0,0-.52,23.21,2.86,28.15,0,0-1,25.29.27,25.54,0,0,1.44,3.65,3.33,3.65,0,0-9,5.47-12.69,6.52,0,0-7.84,3.65-7.84,5.21a4.29,4.29,0,0,0-2.53,4,4.36,4.36,0,0,0,4,4.43c7.9,0.72,20.29,1.17,37.87,0,0,0,6.77-3.13,12.77-3.13,0,0,10.94,1,10.94-4.17,0,0,1.83-9.38,0-11.47,0,0,0-2.08,3.91-3.38,0,0,14.6,8.08,57.6-2.88l68.82-18.24s2.35-1.3,4.7-6l4.17-.26s6.52,12.77,8.6,13.56c0,0-1,6-3.65,8.08,0,0-3.41,1.15-3.86,1.93,0.22,0.86,1.26,2.27,5.68,1.72,0,0,11,2.35,17.21-5.47C554.92,610,554.92,591.7,551.78,587.53Zm-263.89-130c5.83,5.11,4.37,13.87,4.37,13.87-1.94,4.38-7.78,11.19-7.78,11.19-16.54,26.77-18.4,40-18.4,40a169.7,169.7,0,0,1-4.79,21c-8.17,22.7-18,25.39-18,25.39,1.12-15.78,3-56.48,3-56.48,0.48-4.13-.25-13.63-0.25-13.63a27,27,0,0,1,1.22-7.05c2.43-1,2.43-6.81,2.43-6.81,2.19-.48,2.44-6.09,2.44-6.09,0-2.92,13.86-42.81,13.86-42.81C267.44,436.56,287.89,457.48,287.89,457.48Zm19.56-118.32s-0.33.89-1.75-.65c0,0-33.9-41-36.54-41.8,0,0,8.34-7.8,11.85-8.78,0,0,1-.65,3.07.88,0,0,11.3,3.29,10.1,4s-2.85,1.2-2.63,3c0,0-.34,3.07,0,3.29,0,0-4.72,1.86-.34,7.23,0,0-.76,4.39.11,5.71a27.68,27.68,0,0,0,12.62,9S308,334.55,307.45,339.16Z" transform="translate(-132.98 -99.38)" fill="#754241"/></g><path d="M111,455.67" transform="translate(-132.98 -99.38)" fill="#fff"/><g id="Banner"><rect x="34.32" y="395.74" width="341.86" height="47.67" fill="#fff"/><path d="M508.16,495.12H535L513,518.5,535.33,543H508.16S509,494.25,508.16,495.12Z" transform="translate(-132.98 -99.38)" fill="#fff"/><text transform="translate(46.02 415.95)" font-size="16" fill="#754241" font-family="Kannada MN">IN BOTH THE U.K. AND U.S., MEN SPEND TWICE<tspan x="0" y="16">AS MUCH AS WOMEN ON VALENTINE’S DAY</tspan></text></g><g id="Aqua_Orb_R" data-name="Aqua Orb R"><circle cx="56.65" cy="239.31" r="56.65" fill="#93bea9"/><text transform="translate(8.12 233.52)" font-size="24" fill="#fff" font-family="Kannada MN" font-weight="700">$53 U.K.</text><text transform="translate(11.38 260.56)" font-size="24" fill="#fff" font-family="Kannada MN" font-weight="700">$37 U.K.</text></g><g id="Aqua_Orb_L" data-name="Aqua Orb L"><circle cx="385.31" cy="290.31" r="56.65" fill="#93bea9"/><text transform="translate(334.31 286.52)" font-size="24" fill="#fff" font-family="Kannada MN" font-weight="700">$108 U.S.</text><text transform="translate(338.84 313.56)" font-size="24" fill="#fff" font-family="Kannada MN" font-weight="700">$66 U.K.</text></g></svg>