<svg id="Layer_1" data-name="Layer 1" xmlns="http://www.w3.org/2000/svg" viewBox="0 0 760.16 109.38"><title>statistics</title><g id="bg"><rect width="760.16" height="109.38" rx="11" ry="11" fill="#754241"/><circle cx="8.77" cy="5.39" r="1.15" fill="#fff"/><circle cx="7.62" cy="104.31" r="1.15" fill="#fff"/><circle cx="11.08" cy="104.31" r="1.15" fill="#fff"/><circle cx="14.53" cy="104.31" r="1.15" fill="#fff"/><circle cx="17.99" cy="104.31" r="1.15" fill="#fff"/><circle cx="21.45" cy="104.31" r="1.15" fill="#fff"/><circle cx="24.91" cy="104.31" r="1.15" fill="#fff"/><circle cx="28.37" cy="104.31" r="1.15" fill="#fff"/><circle cx="31.82" cy="104.31" r="1.15" fill="#fff"/><circle cx="35.28" cy="104.31" r="1.15" fill="#fff"/><circle cx="38.74" cy="104.31" r="1.15" fill="#fff"/><circle cx="42.2" cy="104.31" r="1.15" fill="#fff"/><circle cx="45.66" cy="104.31" r="1.15" fill="#fff"/><circle cx="49.11" cy="104.31" r="1.15" fill="#fff"/><circle cx="52.57" cy="104.31" r="1.15" fill="#fff"/><circle cx="56.03" cy="104.31" r="1.15" fill="#fff"/><circle cx="59.49" cy="104.31" r="1.15" fill="#fff"/><circle cx="62.94" cy="104.31" r="1.15" fill="#fff"/><circle cx="66.4" cy="104.31" r="1.15" fill="#fff"/><circle cx="69.86" cy="104.31" r="1.15" fill="#fff"/><circle cx="73.32" cy="104.31" r="1.15" fill="#fff"/><circle cx="76.78" cy="104.31" r="1.15" fill="#fff"/><circle cx="80.23" cy="104.31" r="1.15" fill="#fff"/><circle cx="83.69" cy="104.31" r="1.15" fill="#fff"/><circle cx="87.15" cy="104.31" r="1.15" fill="#fff"/><circle cx="90.61" cy="104.31" r="1.15" fill="#fff"/><circle cx="94.07" cy="104.31" r="1.15" fill="#fff"/><circle cx="97.52" cy="104.31" r="1.15" fill="#fff"/><circle cx="100.98" cy="104.31" r="1.15" fill="#fff"/><circle cx="104.44" cy="104.31" r="1.15" fill="#fff"/><circle cx="107.9" cy="104.31" r="1.15" fill="#fff"/><circle cx="111.35" cy="104.31" r="1.15" fill="#fff"/><circle cx="114.81" cy="104.31" r="1.15" fill="#fff"/><circle cx="118.27" cy="104.31" r="1.15" fill="#fff"/><circle cx="121.73" cy="104.31" r="1.15" fill="#fff"/><circle cx="125.19" cy="104.31" r="1.15" fill="#fff"/><circle cx="128.64" cy="104.31" r="1.15" fill="#fff"/><circle cx="132.1" cy="104.31" r="1.15" fill="#fff"/><circle cx="135.56" cy="104.31" r="1.15" fill="#fff"/><circle cx="139.02" cy="104.31" r="1.15" fill="#fff"/><circle cx="142.47" cy="104.31" r="1.15" fill="#fff"/><circle cx="145.93" cy="104.31" r="1.15" fill="#fff"/><circle cx="149.39" cy="104.31" r="1.15" fill="#fff"/><circle cx="152.85" cy="104.31" r="1.15" fill="#fff"/><circle cx="156.31" cy="104.31" r="1.15" fill="#fff"/><circle cx="159.76" cy="104.31" r="1.15" fill="#fff"/><circle cx="163.22" cy="104.31" r="1.15" fill="#fff"/><circle cx="166.68" cy="104.31" r="1.15" fill="#fff"/><circle cx="170.14" cy="104.31" r="1.15" fill="#fff"/><circle cx="173.6" cy="104.31" r="1.15" fill="#fff"/><circle cx="177.05" cy="104.31" r="1.15" fill="#fff"/><circle cx="180.51" cy="104.31" r="1.15" fill="#fff"/><circle cx="183.97" cy="104.31" r="1.15" fill="#fff"/><circle cx="187.43" cy="104.31" r="1.15" fill="#fff"/><circle cx="190.88" cy="104.31" r="1.15" fill="#fff"/><circle cx="194.34" cy="104.31" r="1.15" fill="#fff"/><circle cx="197.8" cy="104.31" r="1.15" fill="#fff"/><circle cx="201.26" cy="104.31" r="1.15" fill="#fff"/><circle cx="204.72" cy="104.31" r="1.15" fill="#fff"/><circle cx="208.17" cy="104.31" r="1.15" fill="#fff"/><circle cx="211.63" cy="104.31" r="1.15" fill="#fff"/><circle cx="215.09" cy="104.31" r="1.15" fill="#fff"/><circle cx="218.55" cy="104.31" r="1.15" fill="#fff"/><circle cx="222" cy="104.31" r="1.15" fill="#fff"/><circle cx="225.46" cy="104.31" r="1.15" fill="#fff"/><circle cx="228.92" cy="104.31" r="1.15" fill="#fff"/><circle cx="232.38" cy="104.31" r="1.15" fill="#fff"/><circle cx="235.84" cy="104.31" r="1.15" fill="#fff"/><circle cx="239.29" cy="104.31" r="1.15" fill="#fff"/><circle cx="242.75" cy="104.31" r="1.15" fill="#fff"/><circle cx="246.21" cy="104.31" r="1.15" fill="#fff"/><circle cx="249.67" cy="104.31" r="1.15" fill="#fff"/><circle cx="253.13" cy="104.31" r="1.15" fill="#fff"/><circle cx="256.58" cy="104.31" r="1.15" fill="#fff"/><circle cx="260.04" cy="104.31" r="1.15" fill="#fff"/><circle cx="263.5" cy="104.31" r="1.15" fill="#fff"/><circle cx="266.96" cy="104.31" r="1.15" fill="#fff"/><circle cx="270.41" cy="104.31" r="1.15" fill="#fff"/><circle cx="273.87" cy="104.31" r="1.15" fill="#fff"/><circle cx="277.33" cy="104.31" r="1.15" fill="#fff"/><circle cx="280.79" cy="104.31" r="1.15" fill="#fff"/><circle cx="284.25" cy="104.31" r="1.15" fill="#fff"/><circle cx="287.7" cy="104.31" r="1.15" fill="#fff"/><circle cx="291.16" cy="104.31" r="1.15" fill="#fff"/><circle cx="294.62" cy="104.31" r="1.15" fill="#fff"/><circle cx="298.08" cy="104.31" r="1.15" fill="#fff"/><circle cx="301.54" cy="104.31" r="1.15" fill="#fff"/><circle cx="304.99" cy="104.31" r="1.15" fill="#fff"/><circle cx="308.45" cy="104.31" r="1.15" fill="#fff"/><circle cx="311.91" cy="104.31" r="1.15" fill="#fff"/><circle cx="315.37" cy="104.31" r="1.15" fill="#fff"/><circle cx="318.82" cy="104.31" r="1.15" fill="#fff"/><circle cx="322.28" cy="104.31" r="1.15" fill="#fff"/><circle cx="325.74" cy="104.31" r="1.15" fill="#fff"/><circle cx="329.2" cy="104.31" r="1.15" fill="#fff"/><circle cx="332.66" cy="104.31" r="1.15" fill="#fff"/><circle cx="336.11" cy="104.31" r="1.15" fill="#fff"/><circle cx="339.57" cy="104.31" r="1.15" fill="#fff"/><circle cx="343.03" cy="104.31" r="1.15" fill="#fff"/><circle cx="346.49" cy="104.31" r="1.15" fill="#fff"/><circle cx="349.94" cy="104.31" r="1.15" fill="#fff"/><circle cx="353.4" cy="104.31" r="1.15" fill="#fff"/><circle cx="356.86" cy="104.31" r="1.15" fill="#fff"/><circle cx="360.32" cy="104.31" r="1.15" fill="#fff"/><circle cx="363.78" cy="104.31" r="1.15" fill="#fff"/><circle cx="367.23" cy="104.31" r="1.15" fill="#fff"/><circle cx="370.69" cy="104.31" r="1.15" fill="#fff"/><circle cx="374.15" cy="104.31" r="1.15" fill="#fff"/><circle cx="377.61" cy="104.31" r="1.15" fill="#fff"/><circle cx="381.07" cy="104.31" r="1.15" fill="#fff"/><circle cx="384.52" cy="104.31" r="1.15" fill="#fff"/><circle cx="387.98" cy="104.31" r="1.15" fill="#fff"/><circle cx="391.44" cy="104.31" r="1.15" fill="#fff"/><circle cx="394.9" cy="104.31" r="1.15" fill="#fff"/><circle cx="398.35" cy="104.31" r="1.15" fill="#fff"/><circle cx="401.81" cy="104.31" r="1.15" fill="#fff"/><circle cx="405.27" cy="104.31" r="1.15" fill="#fff"/><circle cx="408.73" cy="104.31" r="1.15" fill="#fff"/><circle cx="412.19" cy="104.31" r="1.15" fill="#fff"/><circle cx="415.64" cy="104.31" r="1.15" fill="#fff"/><circle cx="419.1" cy="104.31" r="1.15" fill="#fff"/><circle cx="422.56" cy="104.31" r="1.15" fill="#fff"/><circle cx="426.02" cy="104.31" r="1.15" fill="#fff"/><circle cx="429.47" cy="104.31" r="1.15" fill="#fff"/><circle cx="432.93" cy="104.31" r="1.15" fill="#fff"/><circle cx="436.39" cy="104.31" r="1.15" fill="#fff"/><circle cx="439.85" cy="104.31" r="1.15" fill="#fff"/><circle cx="443.31" cy="104.31" r="1.15" fill="#fff"/><circle cx="446.76" cy="104.31" r="1.15" fill="#fff"/><circle cx="450.22" cy="104.31" r="1.15" fill="#fff"/><circle cx="453.68" cy="104.31" r="1.15" fill="#fff"/><circle cx="457.14" cy="104.31" r="1.15" fill="#fff"/><circle cx="460.6" cy="104.31" r="1.15" fill="#fff"/><circle cx="464.05" cy="104.31" r="1.15" fill="#fff"/><circle cx="467.51" cy="104.31" r="1.15" fill="#fff"/><circle cx="470.97" cy="104.31" r="1.15" fill="#fff"/><circle cx="474.43" cy="104.31" r="1.15" fill="#fff"/><circle cx="477.88" cy="104.31" r="1.15" fill="#fff"/><circle cx="481.34" cy="104.31" r="1.15" fill="#fff"/><circle cx="484.8" cy="104.31" r="1.15" fill="#fff"/><circle cx="488.26" cy="104.31" r="1.15" fill="#fff"/><circle cx="491.72" cy="104.31" r="1.15" fill="#fff"/><circle cx="495.17" cy="104.31" r="1.15" fill="#fff"/><circle cx="498.63" cy="104.31" r="1.15" fill="#fff"/><circle cx="502.09" cy="104.31" r="1.15" fill="#fff"/><circle cx="505.55" cy="104.31" r="1.15" fill="#fff"/><circle cx="509.01" cy="104.31" r="1.15" fill="#fff"/><circle cx="512.46" cy="104.31" r="1.15" fill="#fff"/><circle cx="515.92" cy="104.31" r="1.15" fill="#fff"/><circle cx="519.38" cy="104.31" r="1.15" fill="#fff"/><circle cx="522.84" cy="104.31" r="1.15" fill="#fff"/><circle cx="526.29" cy="104.31" r="1.15" fill="#fff"/><circle cx="529.75" cy="104.31" r="1.15" fill="#fff"/><circle cx="533.21" cy="104.31" r="1.15" fill="#fff"/><circle cx="536.67" cy="104.31" r="1.15" fill="#fff"/><circle cx="540.13" cy="104.31" r="1.15" fill="#fff"/><circle cx="543.58" cy="104.31" r="1.15" fill="#fff"/><circle cx="547.04" cy="104.31" r="1.15" fill="#fff"/><circle cx="550.5" cy="104.31" r="1.15" fill="#fff"/><circle cx="553.96" cy="104.31" r="1.15" fill="#fff"/><circle cx="557.41" cy="104.31" r="1.15" fill="#fff"/><circle cx="560.87" cy="104.31" r="1.15" fill="#fff"/><circle cx="564.33" cy="104.31" r="1.15" fill="#fff"/><circle cx="567.79" cy="104.31" r="1.15" fill="#fff"/><circle cx="571.25" cy="104.31" r="1.15" fill="#fff"/><circle cx="574.7" cy="104.31" r="1.15" fill="#fff"/><circle cx="578.16" cy="104.31" r="1.15" fill="#fff"/><circle cx="581.62" cy="104.31" r="1.15" fill="#fff"/><circle cx="585.08" cy="104.31" r="1.15" fill="#fff"/><circle cx="588.54" cy="104.31" r="1.15" fill="#fff"/><circle cx="591.99" cy="104.31" r="1.15" fill="#fff"/><circle cx="595.45" cy="104.31" r="1.15" fill="#fff"/><circle cx="598.91" cy="104.31" r="1.15" fill="#fff"/><circle cx="602.37" cy="104.31" r="1.15" fill="#fff"/><circle cx="605.82" cy="104.31" r="1.15" fill="#fff"/><circle cx="609.28" cy="104.31" r="1.15" fill="#fff"/><circle cx="612.74" cy="104.31" r="1.15" fill="#fff"/><circle cx="616.2" cy="104.31" r="1.15" fill="#fff"/><circle cx="619.66" cy="104.31" r="1.15" fill="#fff"/><circle cx="623.11" cy="104.31" r="1.15" fill="#fff"/><circle cx="626.57" cy="104.31" r="1.15" fill="#fff"/><circle cx="630.03" cy="104.31" r="1.15" fill="#fff"/><circle cx="633.49" cy="104.31" r="1.15" fill="#fff"/><circle cx="636.94" cy="104.31" r="1.15" fill="#fff"/><circle cx="640.4" cy="104.31" r="1.15" fill="#fff"/><circle cx="643.86" cy="104.31" r="1.15" fill="#fff"/><circle cx="647.32" cy="104.31" r="1.15" fill="#fff"/><circle cx="650.78" cy="104.31" r="1.15" fill="#fff"/><circle cx="654.23" cy="104.31" r="1.15" fill="#fff"/><circle cx="657.69" cy="104.31" r="1.15" fill="#fff"/><circle cx="661.15" cy="104.31" r="1.15" fill="#fff"/><circle cx="664.61" cy="104.31" r="1.15" fill="#fff"/><circle cx="668.07" cy="104.31" r="1.15" fill="#fff"/><circle cx="671.52" cy="104.31" r="1.15" fill="#fff"/><circle cx="674.98" cy="104.31" r="1.15" fill="#fff"/><circle cx="678.44" cy="104.31" r="1.15" fill="#fff"/><circle cx="681.9" cy="104.31" r="1.15" fill="#fff"/><circle cx="685.35" cy="104.31" r="1.15" fill="#fff"/><circle cx="688.81" cy="104.31" r="1.15" fill="#fff"/><circle cx="692.27" cy="104.31" r="1.15" fill="#fff"/><circle cx="695.73" cy="104.31" r="1.15" fill="#fff"/><circle cx="699.19" cy="104.31" r="1.15" fill="#fff"/><circle cx="702.64" cy="104.31" r="1.15" fill="#fff"/><circle cx="706.1" cy="104.31" r="1.15" fill="#fff"/><circle cx="709.56" cy="104.31" r="1.15" fill="#fff"/><circle cx="713.02" cy="104.31" r="1.15" fill="#fff"/><circle cx="716.48" cy="104.31" r="1.15" fill="#fff"/><circle cx="719.93" cy="104.31" r="1.15" fill="#fff"/><circle cx="723.39" cy="104.31" r="1.15" fill="#fff"/><circle cx="726.85" cy="104.31" r="1.15" fill="#fff"/><circle cx="730.31" cy="104.31" r="1.15" fill="#fff"/><circle cx="733.76" cy="104.31" r="1.15" fill="#fff"/><circle cx="737.22" cy="104.31" r="1.15" fill="#fff"/><circle cx="740.68" cy="104.31" r="1.15" fill="#fff"/><circle cx="744.14" cy="104.31" r="1.15" fill="#fff"/><circle cx="747.6" cy="104.31" r="1.15" fill="#fff"/><circle cx="751.43" cy="104.31" r="1.15" fill="#fff"/><circle cx="12.23" cy="5.39" r="1.15" fill="#fff"/><circle cx="15.68" cy="5.39" r="1.15" fill="#fff"/><circle cx="19.13" cy="5.39" r="1.15" fill="#fff"/><circle cx="22.59" cy="5.39" r="1.15" fill="#fff"/><circle cx="26.04" cy="5.39" r="1.15" fill="#fff"/><circle cx="29.5" cy="5.39" r="1.15" fill="#fff"/><circle cx="32.95" cy="5.39" r="1.15" fill="#fff"/><circle cx="36.41" cy="5.39" r="1.15" fill="#fff"/><circle cx="39.86" cy="5.39" r="1.15" fill="#fff"/><circle cx="43.31" cy="5.39" r="1.15" fill="#fff"/><circle cx="46.77" cy="5.39" r="1.15" fill="#fff"/><circle cx="50.22" cy="5.39" r="1.15" fill="#fff"/><circle cx="53.68" cy="5.39" r="1.15" fill="#fff"/><circle cx="57.13" cy="5.39" r="1.15" fill="#fff"/><circle cx="60.59" cy="5.39" r="1.15" fill="#fff"/><circle cx="64.04" cy="5.39" r="1.15" fill="#fff"/><circle cx="67.49" cy="5.39" r="1.15" fill="#fff"/><circle cx="70.95" cy="5.39" r="1.15" fill="#fff"/><circle cx="74.4" cy="5.39" r="1.15" fill="#fff"/><circle cx="77.86" cy="5.39" r="1.15" fill="#fff"/><circle cx="81.31" cy="5.39" r="1.15" fill="#fff"/><circle cx="84.76" cy="5.39" r="1.15" fill="#fff"/><circle cx="88.22" cy="5.39" r="1.15" fill="#fff"/><circle cx="91.67" cy="5.39" r="1.15" fill="#fff"/><circle cx="95.13" cy="5.39" r="1.15" fill="#fff"/><circle cx="98.58" cy="5.39" r="1.15" fill="#fff"/><circle cx="102.04" cy="5.39" r="1.15" fill="#fff"/><circle cx="105.49" cy="5.39" r="1.15" fill="#fff"/><circle cx="108.94" cy="5.39" r="1.15" fill="#fff"/><circle cx="112.4" cy="5.39" r="1.15" fill="#fff"/><circle cx="115.85" cy="5.39" r="1.15" fill="#fff"/><circle cx="119.31" cy="5.39" r="1.15" fill="#fff"/><circle cx="122.76" cy="5.39" r="1.15" fill="#fff"/><circle cx="126.22" cy="5.39" r="1.15" fill="#fff"/><circle cx="129.67" cy="5.39" r="1.15" fill="#fff"/><circle cx="133.12" cy="5.39" r="1.15" fill="#fff"/><circle cx="136.58" cy="5.39" r="1.15" fill="#fff"/><circle cx="140.03" cy="5.39" r="1.15" fill="#fff"/><circle cx="143.49" cy="5.39" r="1.15" fill="#fff"/><circle cx="146.94" cy="5.39" r="1.15" fill="#fff"/><circle cx="150.39" cy="5.39" r="1.15" fill="#fff"/><circle cx="153.85" cy="5.39" r="1.15" fill="#fff"/><circle cx="157.3" cy="5.39" r="1.15" fill="#fff"/><circle cx="160.76" cy="5.39" r="1.15" fill="#fff"/><circle cx="164.21" cy="5.39" r="1.15" fill="#fff"/><circle cx="167.67" cy="5.39" r="1.15" fill="#fff"/><circle cx="171.12" cy="5.39" r="1.15" fill="#fff"/><circle cx="174.57" cy="5.39" r="1.15" fill="#fff"/><circle cx="178.03" cy="5.39" r="1.15" fill="#fff"/><circle cx="181.48" cy="5.39" r="1.15" fill="#fff"/><circle cx="184.94" cy="5.39" r="1.15" fill="#fff"/><circle cx="188.39" cy="5.39" r="1.15" fill="#fff"/><circle cx="191.85" cy="5.39" r="1.15" fill="#fff"/><circle cx="195.3" cy="5.39" r="1.15" fill="#fff"/><circle cx="198.75" cy="5.39" r="1.15" fill="#fff"/><circle cx="202.21" cy="5.39" r="1.15" fill="#fff"/><circle cx="205.66" cy="5.39" r="1.15" fill="#fff"/><circle cx="209.12" cy="5.39" r="1.15" fill="#fff"/><circle cx="212.57" cy="5.39" r="1.15" fill="#fff"/><circle cx="216.02" cy="5.39" r="1.15" fill="#fff"/><circle cx="219.48" cy="5.39" r="1.15" fill="#fff"/><circle cx="222.93" cy="5.39" r="1.15" fill="#fff"/><circle cx="226.39" cy="5.39" r="1.15" fill="#fff"/><circle cx="229.84" cy="5.39" r="1.15" fill="#fff"/><circle cx="233.3" cy="5.39" r="1.15" fill="#fff"/><circle cx="236.75" cy="5.39" r="1.15" fill="#fff"/><circle cx="240.2" cy="5.39" r="1.15" fill="#fff"/><circle cx="243.66" cy="5.39" r="1.15" fill="#fff"/><circle cx="247.11" cy="5.39" r="1.15" fill="#fff"/><circle cx="250.57" cy="5.39" r="1.15" fill="#fff"/><circle cx="254.02" cy="5.39" r="1.15" fill="#fff"/><circle cx="257.48" cy="5.39" r="1.15" fill="#fff"/><circle cx="260.93" cy="5.39" r="1.15" fill="#fff"/><circle cx="264.38" cy="5.39" r="1.15" fill="#fff"/><circle cx="267.84" cy="5.39" r="1.15" fill="#fff"/><circle cx="271.29" cy="5.39" r="1.15" fill="#fff"/><circle cx="274.75" cy="5.39" r="1.15" fill="#fff"/><circle cx="278.2" cy="5.39" r="1.15" fill="#fff"/><circle cx="281.65" cy="5.39" r="1.15" fill="#fff"/><circle cx="285.11" cy="5.39" r="1.15" fill="#fff"/><circle cx="288.56" cy="5.39" r="1.15" fill="#fff"/><circle cx="292.02" cy="5.39" r="1.15" fill="#fff"/><circle cx="295.47" cy="5.39" r="1.15" fill="#fff"/><circle cx="298.93" cy="5.39" r="1.15" fill="#fff"/><circle cx="302.38" cy="5.39" r="1.15" fill="#fff"/><circle cx="305.83" cy="5.39" r="1.15" fill="#fff"/><circle cx="309.29" cy="5.39" r="1.15" fill="#fff"/><circle cx="312.74" cy="5.39" r="1.15" fill="#fff"/><circle cx="316.2" cy="5.39" r="1.15" fill="#fff"/><circle cx="319.65" cy="5.39" r="1.15" fill="#fff"/><circle cx="323.11" cy="5.39" r="1.15" fill="#fff"/><circle cx="326.56" cy="5.39" r="1.15" fill="#fff"/><circle cx="330.01" cy="5.39" r="1.15" fill="#fff"/><circle cx="333.47" cy="5.39" r="1.15" fill="#fff"/><circle cx="336.92" cy="5.39" r="1.15" fill="#fff"/><circle cx="340.38" cy="5.39" r="1.15" fill="#fff"/><circle cx="343.83" cy="5.39" r="1.15" fill="#fff"/><circle cx="347.28" cy="5.39" r="1.15" fill="#fff"/><circle cx="350.74" cy="5.39" r="1.15" fill="#fff"/><circle cx="354.19" cy="5.39" r="1.15" fill="#fff"/><circle cx="357.65" cy="5.39" r="1.15" fill="#fff"/><circle cx="361.1" cy="5.39" r="1.15" fill="#fff"/><circle cx="364.56" cy="5.39" r="1.15" fill="#fff"/><circle cx="368.01" cy="5.39" r="1.15" fill="#fff"/><circle cx="371.46" cy="5.39" r="1.15" fill="#fff"/><circle cx="374.92" cy="5.39" r="1.15" fill="#fff"/><circle cx="378.37" cy="5.39" r="1.15" fill="#fff"/><circle cx="381.83" cy="5.39" r="1.15" fill="#fff"/><circle cx="385.28" cy="5.39" r="1.15" fill="#fff"/><circle cx="388.74" cy="5.39" r="1.15" fill="#fff"/><circle cx="392.19" cy="5.39" r="1.15" fill="#fff"/><circle cx="395.64" cy="5.39" r="1.15" fill="#fff"/><circle cx="399.1" cy="5.39" r="1.15" fill="#fff"/><circle cx="402.55" cy="5.39" r="1.15" fill="#fff"/><circle cx="406.01" cy="5.39" r="1.15" fill="#fff"/><circle cx="409.46" cy="5.39" r="1.15" fill="#fff"/><circle cx="412.91" cy="5.39" r="1.15" fill="#fff"/><circle cx="416.37" cy="5.39" r="1.15" fill="#fff"/><circle cx="419.82" cy="5.39" r="1.15" fill="#fff"/><circle cx="423.28" cy="5.39" r="1.15" fill="#fff"/><circle cx="426.73" cy="5.39" r="1.15" fill="#fff"/><circle cx="430.19" cy="5.39" r="1.15" fill="#fff"/><circle cx="433.64" cy="5.39" r="1.15" fill="#fff"/><circle cx="437.09" cy="5.39" r="1.15" fill="#fff"/><circle cx="440.55" cy="5.39" r="1.15" fill="#fff"/><circle cx="444" cy="5.39" r="1.15" fill="#fff"/><circle cx="447.46" cy="5.39" r="1.15" fill="#fff"/><circle cx="450.91" cy="5.39" r="1.15" fill="#fff"/><circle cx="454.37" cy="5.39" r="1.15" fill="#fff"/><circle cx="457.82" cy="5.39" r="1.15" fill="#fff"/><circle cx="461.27" cy="5.39" r="1.15" fill="#fff"/><circle cx="464.73" cy="5.39" r="1.15" fill="#fff"/><circle cx="468.18" cy="5.39" r="1.15" fill="#fff"/><circle cx="471.64" cy="5.39" r="1.15" fill="#fff"/><circle cx="475.09" cy="5.39" r="1.15" fill="#fff"/><circle cx="478.55" cy="5.39" r="1.15" fill="#fff"/><circle cx="482" cy="5.39" r="1.15" fill="#fff"/><circle cx="485.45" cy="5.39" r="1.15" fill="#fff"/><circle cx="488.91" cy="5.39" r="1.15" fill="#fff"/><circle cx="492.36" cy="5.39" r="1.15" fill="#fff"/><circle cx="495.82" cy="5.39" r="1.15" fill="#fff"/><circle cx="499.27" cy="5.39" r="1.15" fill="#fff"/><circle cx="502.72" cy="5.39" r="1.15" fill="#fff"/><circle cx="506.18" cy="5.39" r="1.15" fill="#fff"/><circle cx="509.63" cy="5.39" r="1.15" fill="#fff"/><circle cx="513.09" cy="5.39" r="1.15" fill="#fff"/><circle cx="516.54" cy="5.39" r="1.15" fill="#fff"/><circle cx="520" cy="5.39" r="1.15" fill="#fff"/><circle cx="523.45" cy="5.39" r="1.15" fill="#fff"/><circle cx="526.9" cy="5.39" r="1.15" fill="#fff"/><circle cx="530.36" cy="5.39" r="1.15" fill="#fff"/><circle cx="533.81" cy="5.39" r="1.15" fill="#fff"/><circle cx="537.27" cy="5.39" r="1.15" fill="#fff"/><circle cx="540.72" cy="5.39" r="1.15" fill="#fff"/><circle cx="544.18" cy="5.39" r="1.15" fill="#fff"/><circle cx="547.63" cy="5.39" r="1.15" fill="#fff"/><circle cx="551.08" cy="5.39" r="1.15" fill="#fff"/><circle cx="554.54" cy="5.39" r="1.15" fill="#fff"/><circle cx="557.99" cy="5.39" r="1.15" fill="#fff"/><circle cx="561.45" cy="5.39" r="1.15" fill="#fff"/><circle cx="564.9" cy="5.39" r="1.15" fill="#fff"/><circle cx="568.35" cy="5.39" r="1.15" fill="#fff"/><circle cx="571.81" cy="5.39" r="1.15" fill="#fff"/><circle cx="575.26" cy="5.39" r="1.15" fill="#fff"/><circle cx="578.72" cy="5.39" r="1.15" fill="#fff"/><circle cx="582.17" cy="5.39" r="1.15" fill="#fff"/><circle cx="585.63" cy="5.39" r="1.15" fill="#fff"/><circle cx="589.08" cy="5.39" r="1.15" fill="#fff"/><circle cx="592.53" cy="5.39" r="1.15" fill="#fff"/><circle cx="595.99" cy="5.39" r="1.15" fill="#fff"/><circle cx="599.44" cy="5.39" r="1.15" fill="#fff"/><circle cx="602.9" cy="5.39" r="1.15" fill="#fff"/><circle cx="606.35" cy="5.39" r="1.15" fill="#fff"/><circle cx="609.81" cy="5.39" r="1.15" fill="#fff"/><circle cx="613.26" cy="5.39" r="1.15" fill="#fff"/><circle cx="616.71" cy="5.39" r="1.15" fill="#fff"/><circle cx="620.17" cy="5.39" r="1.15" fill="#fff"/><circle cx="623.62" cy="5.39" r="1.15" fill="#fff"/><circle cx="627.08" cy="5.39" r="1.15" fill="#fff"/><circle cx="630.53" cy="5.39" r="1.15" fill="#fff"/><circle cx="633.98" cy="5.39" r="1.15" fill="#fff"/><circle cx="637.44" cy="5.39" r="1.15" fill="#fff"/><circle cx="640.89" cy="5.39" r="1.15" fill="#fff"/><circle cx="644.35" cy="5.39" r="1.15" fill="#fff"/><circle cx="647.8" cy="5.39" r="1.15" fill="#fff"/><circle cx="651.26" cy="5.39" r="1.15" fill="#fff"/><circle cx="654.71" cy="5.39" r="1.15" fill="#fff"/><circle cx="658.16" cy="5.39" r="1.15" fill="#fff"/><circle cx="661.62" cy="5.39" r="1.15" fill="#fff"/><circle cx="665.07" cy="5.39" r="1.15" fill="#fff"/><circle cx="668.53" cy="5.39" r="1.15" fill="#fff"/><circle cx="671.98" cy="5.39" r="1.15" fill="#fff"/><circle cx="675.44" cy="5.39" r="1.15" fill="#fff"/><circle cx="678.89" cy="5.39" r="1.15" fill="#fff"/><circle cx="682.34" cy="5.39" r="1.15" fill="#fff"/><circle cx="685.8" cy="5.39" r="1.15" fill="#fff"/><circle cx="689.25" cy="5.39" r="1.15" fill="#fff"/><circle cx="692.71" cy="5.39" r="1.15" fill="#fff"/><circle cx="696.16" cy="5.39" r="1.15" fill="#fff"/><circle cx="699.61" cy="5.39" r="1.15" fill="#fff"/><circle cx="703.07" cy="5.39" r="1.15" fill="#fff"/><circle cx="706.52" cy="5.39" r="1.15" fill="#fff"/><circle cx="709.98" cy="5.39" r="1.15" fill="#fff"/><circle cx="713.43" cy="5.39" r="1.15" fill="#fff"/><circle cx="716.89" cy="5.39" r="1.15" fill="#fff"/><circle cx="720.34" cy="5.39" r="1.15" fill="#fff"/><circle cx="723.79" cy="5.39" r="1.15" fill="#fff"/><circle cx="727.25" cy="5.39" r="1.15" fill="#fff"/><circle cx="730.7" cy="5.39" r="1.15" fill="#fff"/><circle cx="734.16" cy="5.39" r="1.15" fill="#fff"/><circle cx="737.61" cy="5.39" r="1.15" fill="#fff"/><circle cx="741.07" cy="5.39" r="1.15" fill="#fff"/><circle cx="744.52" cy="5.39" r="1.15" fill="#fff"/><circle cx="747.97" cy="5.39" r="1.15" fill="#fff"/><circle cx="751.43" cy="5.39" r="1.15" fill="#fff"/><circle cx="52.17" cy="26.86" r="8.9" fill="#f1d5b6"/><circle cx="81.27" cy="26.86" r="8.9" fill="#f1d5b6"/><rect x="43.89" y="37.99" width="16.55" height="18.28" fill="#f1d5b6"/><polygon points="43.89 57.89 43.89 88.92 52.27 88.92 52.27 67.77 52.9 67.77 52.9 88.92 60.44 88.92 60.44 57.89 43.89 57.89" fill="#f1d5b6"/><polygon points="73.18 37.99 89.37 37.99 80.49 56.27 73.18 37.99" fill="#f1d5b6"/><polygon points="80.49 57.89 70.09 88.92 89.37 88.92 80.49 57.89" fill="#f1d5b6"/><path d="M83.61,115.71l-0.07.14v6.65h0l6.06,8.7a2,2,0,0,0,2.76.49h0a2,2,0,0,0,.49-2.76Z" transform="translate(-22.52 -77.71)" fill="#f1d5b6"/><polygon points="75.07 42.29 75.68 40.87 73.66 38.69 75.07 42.29" fill="#f1d5b6"/><path d="M95.24,115.77l-5.82,13.6a1.69,1.69,0,0,0,1,2.28h0a2.18,2.18,0,0,0,2.67-1.22l4.1-9.58Z" transform="translate(-22.52 -77.71)" fill="#f1d5b6"/><path d="M65.75,115.71l0.07,0.14v6.65h0l-6.06,8.7a2,2,0,0,1-2.76.49h0a2,2,0,0,1-.49-2.76Z" transform="translate(-22.52 -77.71)" fill="#f1d5b6"/><path d="M112.39,115.87l4.68,13.91a1.8,1.8,0,0,1-1.29,2.32h0a2.05,2.05,0,0,1-2.41-1.34l-3.36-10Z" transform="translate(-22.52 -77.71)" fill="#f1d5b6"/><circle cx="312.79" cy="26.21" r="8.9" fill="#f1d5b6"/><rect x="304.51" y="37.34" width="16.55" height="18.28" fill="#f1d5b6"/><polygon points="304.51 57.24 304.51 88.27 312.89 88.27 312.89 67.12 313.52 67.12 313.52 88.27 321.06 88.27 321.06 57.24 304.51 57.24" fill="#f1d5b6"/><path d="M344.23,115.06l-0.07.14v6.65h0l6.06,8.7a2,2,0,0,0,2.76.49h0a2,2,0,0,0,.49-2.76Z" transform="translate(-22.52 -77.71)" fill="#f1d5b6"/><path d="M326.38,115.06l0.07,0.14v6.65h0l-6.06,8.7a2,2,0,0,1-2.76.49h0a2,2,0,0,1-.49-2.76Z" transform="translate(-22.52 -77.71)" fill="#f1d5b6"/><circle cx="340.46" cy="45.09" r="6.19" fill="#f1d5b6"/><polygon points="334.82 52.83 346.09 52.83 339.92 65.55 334.82 52.83" fill="#f1d5b6"/><polygon points="339.92 66.68 332.68 88.27 346.09 88.27 339.92 66.68" fill="#f1d5b6"/><polygon points="336.14 55.83 336.56 54.84 335.16 53.31 336.14 55.83" fill="#f1d5b6"/><path d="M357,130.59L353,140a1.18,1.18,0,0,0,.72,1.59h0a1.52,1.52,0,0,0,1.85-.85l2.86-6.67Z" transform="translate(-22.52 -77.71)" fill="#f1d5b6"/><path d="M369,130.66l3.26,9.68a1.25,1.25,0,0,1-.9,1.62h0a1.43,1.43,0,0,1-1.68-.94l-2.34-6.95Z" transform="translate(-22.52 -77.71)" fill="#f1d5b6"/><circle cx="357.78" cy="66.63" r="3.74" fill="#f1d5b6"/><rect x="354.31" y="71.3" width="6.95" height="7.68" fill="#f1d5b6"/><polygon points="354.31 79.66 354.31 88.27 357.83 88.27 357.83 82.4 358.09 82.4 358.09 88.27 361.26 88.27 361.26 79.66 354.31 79.66" fill="#f1d5b6"/><path d="M384,149l0,0.06v2.79h0l2.54,3.65a0.83,0.83,0,0,0,1.16.21h0a0.83,0.83,0,0,0,.21-1.16Z" transform="translate(-22.52 -77.71)" fill="#f1d5b6"/><path d="M376.55,149l0,0.06v2.79h0l-2.54,3.65a0.83,0.83,0,0,1-1.16.21h0a0.83,0.83,0,0,1-.21-1.16Z" transform="translate(-22.52 -77.71)" fill="#f1d5b6"/><circle cx="610.68" cy="60.3" r="6.19" fill="#f1d5b6"/><polygon points="617.11 56.97 613.35 53.87 618.91 51.32 617.11 56.97" fill="#f1d5b6"/><polygon points="611.05 67.1 603.81 88.69 617.23 88.69 611.05 67.1" fill="#f1d5b6"/><polygon points="604.66 56.73 608.42 53.63 602.87 51.08 604.66 56.73" fill="#f1d5b6"/><path d="M639.75,164.11l-0.36-1.68s8.78-1.68,10.12-10.73c0,0,.22-3.52.95-3.69,0,0,1.9-2,.9,3.85C651.35,151.87,649.26,161.81,639.75,164.11Z" transform="translate(-22.52 -77.71)" fill="#f1d5b6"/><circle cx="585.55" cy="50.54" r="7.9" fill="#f1d5b6"/><polygon points="581.36 61.53 590.41 61.53 597.45 89.18 573.65 89.18 581.36 61.53" fill="#f1d5b6"/><path d="M614.94,122.31l1.84,3.52s1.68-.36,2,2.42c0,0,3,1.84,1.84-3C620.64,125.28,618.46,115.94,614.94,122.31Z" transform="translate(-22.52 -77.71)" fill="#f1d5b6"/><path d="M601.22,122.31l-1.84,3.52s-1.68-.36-2,2.42c0,0-3,1.84-1.84-3C595.53,125.28,597.71,115.94,601.22,122.31Z" transform="translate(-22.52 -77.71)" fill="#f1d5b6"/><path d="M596.73,163.42l0.36-1.68S588.31,160.06,587,151c0,0-.22-3.52-0.95-3.69,0,0-1.9-2-.9,3.85C585.13,151.18,587.22,161.12,596.73,163.42Z" transform="translate(-22.52 -77.71)" fill="#f1d5b6"/></g><g id="_56" data-name="56"><circle cx="173.81" cy="54.29" r="44.68" fill="#93bea9"/><text transform="translate(145.7 45.96)" font-size="27.48" fill="#fff" font-family="Kannada MN" font-weight="700"><tspan letter-spacing="-1">5</tspan><tspan x="14.57" y="0">6%</tspan></text><text transform="translate(136.53 57.29)" font-size="8.65" fill="#fff" font-family="Kannada MN">10.5 BILLION SPENT<tspan x="4.56" y="7.66">ON SPOUSES OR </tspan><tspan x="12.56" y="15.31">SIGNIFICANT</tspan><tspan x="21.52" y="22.97">OTHERS</tspan></text></g><g id="_39" data-name="39"><circle cx="419.48" cy="54.62" r="44.68" fill="#93bea9"/><text transform="translate(391.07 46.96)" font-size="27.48" fill="#fff" font-family="Kannada MN" font-weight="700"><tspan letter-spacing="-1">3</tspan><tspan x="14.02" y="0">9%</tspan></text><text transform="translate(385.9 58.76)" font-size="8.65" fill="#fff" font-family="Kannada MN">SPENT ON OTHER<tspan x="-1.31" y="7.66">FAMILY MEMBERS,</tspan><tspan x="7.32" y="15.31">FRIENDS, AND</tspan><tspan x="8.74" y="22.97">CLASSMATES</tspan></text></g><g id="_5" data-name="5"><circle cx="679.12" cy="55.29" r="44.68" fill="#93bea9"/><text transform="translate(656.84 49.08)" font-size="30.03" fill="#fff" font-family="Kannada MN" font-weight="700">5%</text><text transform="translate(649.24 61.12)" font-size="9.45" fill="#fff" font-family="Kannada MN">A SURPRISING <tspan x="-3.3" y="8.36">FIGURE OF $815</tspan><tspan x="-6.95" y="16.73">MILLION IS SPENT</tspan><tspan x="10.81" y="25.09">ON PETS </tspan></text></g></svg>